<svg id="Layer_1" data-name="Layer 1" xmlns="http://www.w3.org/2000/svg" xmlns:xlink="http://www.w3.org/1999/xlink" width="799" height="600" viewBox="0 0 799 600"><defs><style>.cls-1{opacity:0.54;}.cls-2{fill:url(#New_Gradient_Swatch_1);}.cls-3{fill:url(#New_Gradient_Swatch_1-2);}.cls-4{fill:url(#New_Gradient_Swatch_1-3);}.cls-5{fill:url(#New_Gradient_Swatch_1-4);}.cls-6{fill:#426edb;}.cls-7{fill:#15386c;}.cls-8{fill:#f5ab86;}.cls-9{fill:#31baa2;}.cls-10{fill:#42210b;}.cls-11{fill:#fad100;}.cls-12{fill:#f88265;}.cls-13{fill:#fff;}</style><linearGradient id="New_Gradient_Swatch_1" x1="709.98" y1="228.76" x2="764.91" y2="228.76" gradientUnits="userSpaceOnUse"><stop offset="0" stop-color="#12a7f6"/><stop offset="1" stop-color="#02e0c2"/></linearGradient><linearGradient id="New_Gradient_Swatch_1-2" x1="19" y1="300.22" x2="787.88" y2="300.22" xlink:href="#New_Gradient_Swatch_1"/><linearGradient id="New_Gradient_Swatch_1-3" x1="466.2" y1="51.86" x2="538" y2="51.86" xlink:href="#New_Gradient_Swatch_1"/><linearGradient id="New_Gradient_Swatch_1-4" x1="242.09" y1="100.61" x2="289.15" y2="100.61" xlink:href="#New_Gradient_Swatch_1"/></defs><title>contact us</title><g class="cls-1"><path class="cls-2" d="M750.88,176.23q-1.23-1.93-2.6-3.71c-10-13-35.22-14.65-30.94,7.4.88,4.52,2.93,8.74,4.13,13.18,3.47,12.87-.43,26.43-4.58,39.1s-8.61,25.91-6.26,39c2.43,13.52,15,25.75,29.72,22.92,19-3.65,23.14-28.67,24.18-44.28C766,228.05,763.55,196.09,750.88,176.23Z"/><path class="cls-3" d="M785.93,411.83c-11.22-47.77-68.16-66-82.22-112-7.47-24.46-.15-50.57,2.11-76,5.63-63.47-23.1-128.93-73.92-168.41C616,43,597.64,32.89,577.62,29.51s-41.91.61-57.39,13.55c-18.56,15.53-25.6,41.21-43.72,57.23-16.18,14.29-39.09,18.9-60.83,18.61s-43.17-4.9-64.85-6.49c-22.86-1.68-45.86,0-68.54,3.27-20.14,2.91-40.55,7.27-57.9,17.75s-31.3,28.14-32.53,48.13c-1.42,23.13,18.07,43.51,18.27,66.68.51,62.27-48.3,48.34-72,83-15,22,3.52,59.48-14,84.17C107.08,439.6,80.26,433.65,57,444c-40.13,17.75-69.35,64.8,24.79,64.8,45.58,0,116.58-13.66,153.09,20.29,17.86,16.6,31.55,23.9,57.28,19.5,40.18-6.86,50.5,23.53,93.85,23.53,49.87,0,55.65-37.19,136.55-17.19,35.49,8.78,53.39-12.4,77.38-17.81,24.31-5.47,48.28-.19,72.72,0,23.75.18,42.79-19.84,57.54-35.75,12.71-13.71,30.76-23.89,44-37.47C787.82,449.88,790.26,430.25,785.93,411.83Z"/><path class="cls-4" d="M533.8,28.82c4-4.09,5.86-8.77,2.31-13.91-1.53-2.2-4.19-3.39-6.83-4C510.41,6.86,490.43,25.28,485.7,42.1c-1.91,6.82-1.66,14-3.78,20.83-1.85,5.95-5.63,11-9.56,15.76-2.41,2.93-8,8.26-5.56,12.44,1.9,3.27,7,2.5,10.21.46,8.12-5.16,11.64-14.29,14.64-22.89,4.09-11.74,11-20.84,22-27.1C520.45,37.71,528.22,34.47,533.8,28.82Z"/><path class="cls-5" d="M288.83,94.81a8.54,8.54,0,0,0-3.55-4.45c-13.48-9.56-58.28,4-38,20.81,9.42,7.81,24.59-2.63,34.2-5a9.84,9.84,0,0,0,5.75-3.37A9.42,9.42,0,0,0,288.83,94.81Z"/></g><rect class="cls-6" x="438.72" y="249.73" width="343.28" height="232.19"/><path class="cls-7" d="M438.72,249.73l161.12,147a15.61,15.61,0,0,0,21,0L782,249.73Z"/><polygon class="cls-7" points="782 481.91 610.36 302.77 782 466.65 782 481.91"/><polygon class="cls-7" points="438.71 481.91 610.36 302.77 438.71 466.65 438.71 481.91"/><path class="cls-6" d="M438.72,249.73l158.65,134a20.11,20.11,0,0,0,26,0L782,249.73Z"/><path class="cls-7" d="M553.16,138.76a5.35,5.35,0,1,1,5.34,5.34A5.34,5.34,0,0,1,553.16,138.76Z"/><path d="M539.4,309.26c-.12,2.88.56,9.89-.84,12.88-3.39,1.7-9.45.41-13.69-1.82s-8-.68-13.73-1.71-9.9-3.69-10.47-6.29c-.63-2.84,9.56-2.46,16.67-2.9,8-.49,12.67-3.22,12.67-3.22Z"/><path class="cls-8" d="M542.39,299.22l-3,10a5.16,5.16,0,0,0-2,.61c-.68.5-1.91,2.39-2.81,2.21-3.57-.7-4.53-5.88-4.53-5.88l2.53-10.5Z"/><path class="cls-9" d="M594,210.28l-1.35,10.59-36.94-.76s-8.7-.17-11.28,8.67-12.23,68.16-12.23,68.16,5.19,3.83,10.46,3c0,0,17.42-36,19.91-45.91a51.22,51.22,0,0,0,1.24-18.24l44.53-3.87Z"/><path d="M565.83,306.94c1.93,2.14,7.32,6.68,8.4,9.79-1.23,3.58-6.46,6.9-11.05,8.27s-6.18,5.1-11,8.38-9.66,4.29-11.89,2.83c-2.43-1.59,5.12-8.45,9.89-13.73,5.35-5.92,6.81-11.16,6.81-11.16Z"/><path class="cls-8" d="M564.21,298.13l1.62,8.81a5.07,5.07,0,0,0-1,1.87c-.14.83.31,3-.46,3.54-3.05,2-7.35-1-7.35-1l-3.56-10.9Z"/><path class="cls-9" d="M621.83,205.86c1.35,3.47,4.37,7.6,6.27,10.83s7.76,11.84,4.37,20.9c-3.63,9.72-11.71,12.14-20.07,12.14H593c-5.7,0-40.74-8.62-40.74-8.62s4,2.33,6,8.62,6,48.4,6,48.4c-2.59,2.6-6.2,3.67-10.79,3.31,0,0-10.5-32.66-14.86-44.75-4.55-12.62-9.64-24.92-8.65-30.37,1.38-7.65,14.62-7.87,25.56-7.49s36.11,1.32,41.23.6L594,210.28Z"/><path class="cls-9" d="M632.47,237.59c3.39-9.06-2.47-17.67-4.37-20.9s-4.92-7.36-6.27-10.83L594,210.28l1.7,5.85s15.41,2.11,22.13-5.85c0,0,4.91,7.47,6.33,11.95,2,6.18,1.43,16.21-10.67,18.61s-56.76-4.16-62.68-4.81-3.94,2.75-.65,9.7,4.66,19.4,7.61,34.31c1.89,9.52,4,19.9,4,19.9a11,11,0,0,0,2.38-1.81s-4-42.12-6-48.4-6-8.62-6-8.62,35,8.62,40.74,8.62H612.4C620.76,249.73,628.84,247.31,632.47,237.59Z"/><path class="cls-10" d="M610,105s-5.57-4.72-16-3.73c-8.27.78-14.33,5.6-16.23,11.65s-1.33,17.13,8.7,23.33c0,0-3.11,1.7.35,5,0,0-5.36,1.31-7.09,4.29s0,5.77,1,9.13,1.38,3.88-3.12,8.38-8.36,12.46-2,22.66,17.38,18.77,32.71,18c15.5-.82,33-6,37.41-29.87S635.13,144.4,631,145.47a49.65,49.65,0,0,0,3.19-23.34c-1.38-13.15-7.8-19.06-13.2-19.48C613,102,610,105,610,105Z"/><path class="cls-8" d="M606.77,152.05c-2,.62-5.48,1.14-7.29,2.55s-19.73,29.32-19.73,29.32-16.51-25.83-19-28.91-15.15-7.26-17.44-6.8c-2.83.57-1.3,4.1-.72,6.39.33,1.32.84,5,3.17,6.56S556.42,164,556.42,164s14.85,31.26,17.92,35.94c2,3,4.18,3.07,7.86-1S600,176.39,600,176.39Z"/><path class="cls-11" d="M606.77,152.05c-3.27,1.19-6.29,1.11-7.95,3.22S595.74,167,595.74,167s8.21-1.63,10.39-5.94a20.67,20.67,0,0,0,2.25-8.19Z"/><path class="cls-11" d="M618.2,146.68a5.7,5.7,0,0,0,2.77,1c1.83.26,7.8,1.56,9,3.8,2.89,4-.08,17.11-1.77,26.32-1,5.61-11,18.22-4.18,31.07,0,0-15.31,9-30.76,1.41-1.62-7.65.28-13,.33-21.59-2.18-2.38-4.35-6.73-4.55-9.56-.73-10.5,9.77-13.7,18-25.4,2.28-3.26,4-3.1,7.12-5.48A7.31,7.31,0,0,1,618.2,146.68Z"/><path class="cls-8" d="M622.94,151.24c4.62-2.91,8.37.68,10.56,5.94s13.76,37.92,14.77,42-3.44,44.23-4.66,46.57-2.49,4-7.13,4H615.16s1.06-2.18,4.71-3.09,14-1.22,16-4.46,1.16-40.72,1.16-40.72S624.22,174,621.38,167.21,619.66,153.31,622.94,151.24Z"/><path class="cls-11" d="M625.1,149.47c-2.74,0-9,6.22-3.72,17.74,0,0,6.87-9.74,13.16-7.37C634.54,159.84,631.79,147.9,625.1,149.47Z"/><path class="cls-8" d="M612.65,136.14l4.83,4.3,2.13,7.24a19,19,0,0,0-4.2,3.79c-1.42,2.14-4.61,7.3-8.45,7.74a31.1,31.1,0,0,0-.19-7.16c-.58-2.5-2.33-7.47-2.33-7.47Z"/><path class="cls-12" d="M612.65,136.14a25.73,25.73,0,0,1,.86,6.11c-.17,2.05-2,6.32-6.74,9.8-.58-2.5-2.33-7.47-2.33-7.47Z"/><path class="cls-8" d="M592.31,127c-.91,3.25-4.63,7.81-3.82,8.62s3.85.52,3.85.52a5.94,5.94,0,0,0,1.54-5.4C593.09,127.63,592.31,127,592.31,127Z"/><path class="cls-8" d="M600.4,106.71c-4.49.41-9,6.65-8.92,12.32s1.4,8.76,1,12.76a24.74,24.74,0,0,0,1.34,12.07c1.12,2.8,4,3.42,7.92,2.49,3.56-.86,8.42-4.28,9.53-5.36s1.34-4.85,1.34-4.85a11.11,11.11,0,0,0,7.73-5.63C622.82,125.65,622.38,104.71,600.4,106.71Z"/><path class="cls-10" d="M612.65,136.14a7.27,7.27,0,0,0,4.41-7.27c-.44-5.53-7.89-5.73-7.58-.86,0,0-5.21-1-8.38-4.75-6-7-6.62-12.69-6.62-12.69C595.74,101.87,610,105,610,105s7.23-3.13,13.38,1c4.4,2.94,6.65,13.48,3.08,22.25s-9,12.27-9,12.27Z"/><path class="cls-8" d="M607,153.73c.07,1.56-2.86,5-2.14,7.35s5.63,2.69,8.29,0,4.2-11.11,7.81-13.4a2.05,2.05,0,0,1-1.79-1.46Z"/><path class="cls-7" d="M554.09,145.61s-1.44,12.76,3.49,23a2.14,2.14,0,0,1-.91,2.77l-6,3.34a2.16,2.16,0,0,1-3.17-1.47A64.16,64.16,0,0,1,548.67,145Z"/><path class="cls-8" d="M547.8,148.91c1.52.43,3.72,1.38,3.79,2.82s-2.33,1.51-2.33,1.51,1.7.76,1.82,1.82-.94,2.14-2.51,2.14c0,0,1.62.56,1.13,2s-2.89.25-3.36,1.32a6.75,6.75,0,0,1-1.54-4.46C544.67,153,547.8,148.91,547.8,148.91Z"/><path class="cls-8" d="M560.79,155c-1.45-2.78-2.88-4.81-6.16-6.1-2.8-1.1-4.13-3.26-4.86-2.16s1.25,4.57,4.32,5.62Z"/><path class="cls-13" d="M603.6,139.66c-.19,1.48-1,4.22-4.2,4.45s-4.33-2.16-4.76-3.82Z"/><path class="cls-7" d="M544.78,145.17l12.41,1.57c3.19.38,5.17-16,2-16.38L547,128.31Z"/><path class="cls-9" d="M547,128.31c-4.53-.51-20.11-7.8-23.5-20.91-12.78-1.62-18.76,45.58-6,47.2,3.52-8.15,21-10.21,27.29-9.43C547.2,145.49,549.41,128.62,547,128.31Z"/><path class="cls-8" d="M145.28,324c10.24,9.33,21.38,15.67,34.29,13.21,18.18-3.46,32.38-22,32.38-22s4.68,6.11,4.68,6.72-12,24.43-33.8,29.32-41.39-10.72-41.39-10.72Z"/><path class="cls-9" d="M332,452.69a30.31,30.31,0,0,0,38.13,9.66l24.26-12A10.05,10.05,0,0,1,407.29,454l43.85,68.89a10.06,10.06,0,0,1-3.52,14.16c-14.18,8-43.47,21.59-75.71,19-45.27-3.69-74.73-45.78-124.58-124.1s-75.49-122.83-59.67-165.4c11.28-30.33,36-51.11,49.25-60.56a10.05,10.05,0,0,1,14.31,2.81l43.84,68.89a10.06,10.06,0,0,1-2.19,13.25l-21.11,16.91a30.32,30.32,0,0,0-7.39,38.64Z"/><path class="cls-7" d="M275.1,305.16l17.77-14.24a10.06,10.06,0,0,0,2.19-13.25l-23.17-36.42L251,208.43a10,10,0,0,0-14-2.46,163.84,163.84,0,0,0-16.49,13.49Z"/><path class="cls-7" d="M428.43,546.28a164.19,164.19,0,0,0,19.19-9.22,10,10,0,0,0,3.74-13.71l-45.05-70.6a10,10,0,0,0-11.95-2.36l-20.63,10.17Z"/><path class="cls-11" d="M145.94,324.53l8.3,6.21s3.74,11.48-2.58,17.45l-11-6.66Z"/><path d="M130.6,543.76c-.54,2.7-2.74,9-2.11,12.12,2.76,2.33,8.67,2.49,13.09,1.37s7.55,1.16,13.11,1.48,10-1.19,11.11-3.48c1.21-2.49-8.31-4.42-14.8-6.41A29.5,29.5,0,0,1,140,543Z"/><path class="cls-8" d="M130.6,533v10.74a4.9,4.9,0,0,1,1.76,1c.52.61,1.23,2.63,2.1,2.67,3.47.14,5.52-4.43,5.52-4.43l1.31-9.77Z"/><path d="M45.78,521.05c-2.74.2-9.44-.24-12.24,1.18-1.52,3.28-.12,9,2.13,13s.89,7.58,2,13,3.8,9.33,6.3,9.8c2.72.51,2.06-9.18,2.27-16A29.5,29.5,0,0,1,49,529.91Z"/><path class="cls-8" d="M52.71,516.07l-6.93,5a4.85,4.85,0,0,1-.52,2c-.46.67-2.22,1.89-2,2.74.78,3.38,5.74,4.15,5.74,4.15l9.64-5.14Z"/><path class="cls-7" d="M151.35,380c-12,0-21,.91-21,.91-3.85,1.68-10.45,10.43-12.39,16s.94,13.31,2,18.08c5.65,26.61,11.43,45.1,13.62,55.65,1.34,6.45-3.44,7.48-3.48,17.7-.07,14.63.54,45.83.54,45.83a14.07,14.07,0,0,0,10.46.83s9-51.45,10-57.34c1.6-9.55,2.16-13.55,2.34-30.07C153.67,424.31,151.35,380,151.35,380Z"/><path class="cls-7" d="M151.2,400.14c-2,9.41-15.51,20.74-15.51,20.74-1.53,4.39-21.32,72.12-24.62,74.7s-52.46,29.18-52.46,29.18a11.21,11.21,0,0,1-4.67-4.91,14.22,14.22,0,0,1-1.12-3.22,4.11,4.11,0,0,1-.08-.47.35.35,0,0,1,0-.1s25.17-26.62,31.11-29.46A55.37,55.37,0,0,1,94,482.66v0c6.77-31.47,6.56-56.06,12-73.45a78.44,78.44,0,0,1,3.18-8.55c1.41-3.08,2.48-5.66,3.34-7.85.37-1,.69-1.81,1-2.64s.56-1.59.78-2.29c.17-.48.31-.95.45-1.37.62-2,1.06-3.56,1.55-5.07.22-.66.44-1.31.68-2,.14-.32.26-.67.4-1s.28-.68.45-1h0v0l9.39,7,4.53,3.36Z"/><path class="cls-7" d="M131.74,387.82A45.6,45.6,0,0,1,126,394c-7,6.07-11.2,15.53-14.93,35.12C106.89,451.17,99.85,484,99,486s-7,1.27-18.39,9.56c-8.57,6.26-21,19.28-26.67,24.27a14.22,14.22,0,0,1-1.12-3.22c0-.22-.06-.38-.08-.47a.35.35,0,0,1,0-.1s25.17-26.62,31.11-29.46A55.37,55.37,0,0,1,94,482.66v0c6.46-31.47,6.56-56.06,12-73.45a73.92,73.92,0,0,1,3.2-8.53c1.41-3.08,2.48-5.66,3.32-7.87.39-1,.71-1.83,1-2.64s.56-1.59.78-2.29c.17-.48.31-.95.45-1.37.62-2,1.06-3.56,1.55-5.07.22-.66.44-1.31.68-2,.14-.32.26-.67.4-1s.3-.66.47-1v0l9.39,7Z"/><path class="cls-7" d="M151.2,400.14s-6.15,8.06-23.07,8.69c-11.69.44-19.12-4.25-19.12-4.25l4.56-7.16Z"/><polygon class="cls-8" points="134.09 310.81 145.75 320.8 152.42 304.95 138.55 296.94 134.09 310.81"/><path class="cls-12" d="M150.45,309.64s-13.74-3.85-11.9-12.7l13.87,8Z"/><path class="cls-11" d="M145.47,320.4a13.66,13.66,0,0,1,4.79,8.92c.63,5.63,1.13,14.06,1.61,26.3.43,11.11,1.55,43.35,1.55,43.35s-8.51,5.57-22.8,4.43c-13.65-1.09-19.54-7.8-19.54-7.8s1.43-45.34,5.91-63.19c6.63-18.4,17.11-21.6,17.11-21.6Z"/><path class="cls-8" d="M159.38,284c.72,1.25,4.48,6.52,5.7,8.05s-3.65,1.93-3.65,1.93Z"/><path class="cls-8" d="M138.55,296.94a31.33,31.33,0,0,0,1.6,3.17c.82,1.35,12.25,6,15.27,6.36s7-.25,6.22-10.32-3.36-18.78-10.08-23.34-16.16.42-20.23,6.88S131.6,298.8,138.55,296.94Z"/><path d="M138.55,296.94h0l-1.49,4.63s-1.15.56-4.07-3.07c-3.19-4-9-10.72-8.43-15,.75-5.64,7.21-7.67,7.21-7.67s3.29-10.42,16.17-16,18.58,3.79,8.68,10.66c0,0,6.89,3.44,2.54,6.05s-16.79,2.28-16.79,2.28,6.11,2.34,4.29,4.06-9.69,1-9.69,1l1,4s-3.21-1-4.94,1.09C130.93,291.47,134.12,298.25,138.55,296.94Z"/><path class="cls-11" d="M129,320.9c-2.82,1.49-6.52,9.63-3.89,18.42s6,17.86,6,17.86,13.58-3.21,17.16-11.86c0,0-4.8-11.72-7-16.47S136.16,317.13,129,320.9Z"/><path class="cls-11" d="M143.26,371.94c3,3.05,7.19,6.4,9.51,7.32-.18-5.13-.38-9.46-.55-14.2l-10.17-13.51-6.68-1.8-2.4,6.92S138.39,367.08,143.26,371.94Z"/><path class="cls-8" d="M132.25,320.8c-6.42,1.7-8.61,10.92-2.15,25.18,6.2,13.69,16.19,26.21,22.32,30.49s29.92,2.87,49.81-3c0,0,11.33-4.07,14.48-6.87,7-6.22,7.37-14.48,2.21-13.25s-13.29,6.81-13.29,6.81-2.16-4.25-3.73-7.56c0,0-1.39.36-1.88,3.31s-.45,7.05-1.31,7.65c-2.28,1.59-34.16,4.27-38,.52-4.31-4.25-10.56-15.52-15-25.93C140.84,326.63,138.82,319.05,132.25,320.8Z"/><path class="cls-11" d="M130.1,319.36c-2.82,1.49-6.52,9.63-3.89,18.42s6,17.87,6,17.87,12.75-1.93,18.16-9.26c0,0-5.8-14.33-8-19.07S137.22,315.59,130.1,319.36Z"/><path class="cls-13" d="M160.84,297.05c.08,1.49-.18,4.32-3.33,5.14s-4.64-1.34-5.37-2.9Z"/><path class="cls-7" d="M431.62,172.59a1.75,1.75,0,0,0-.71-1.4,1.44,1.44,0,0,0-1.41-.36H368.88a1.44,1.44,0,0,0-1.41.36,1.76,1.76,0,0,0-.72,1.4V214a1.78,1.78,0,0,0,1.11,1.63,1.43,1.43,0,0,0,1.19.14h60.18a1.43,1.43,0,0,0,1,0,1.56,1.56,0,0,0,.83-.44l0,0,0-.05a1.62,1.62,0,0,0,.47-1.2Zm-3.53,36.58L410.6,187.72l17.49-11.81Zm-20.64-23.58a2.49,2.49,0,0,0-.43.29l-7.83,5.29-.3-.2-3.17-2.14-10.59-7.15-10.85-7.32H424.1Zm-37.17-9.68,17.44,11.77-17.44,21.38Zm20.36,13.74,7.66,5.17a1.72,1.72,0,0,0,1.78,0l7.6-5.13q9.18,11.28,18.38,22.55H372.22Z"/><path class="cls-9" d="M110.31,171a5.31,5.31,0,0,1,5.3-5.29H170.7A5.31,5.31,0,0,1,176,171v38.86a5.31,5.31,0,0,1-5.3,5.29H144.85a10.75,10.75,0,0,0-8.14,4.47l-8.37,13.18c-1.56,2.46-2.84,2.08-2.84-.83V220.47a5.32,5.32,0,0,0-5.3-5.3h-4.59a5.31,5.31,0,0,1-5.3-5.29Z"/><path class="cls-13" d="M160.46,189.59a3.89,3.89,0,1,0,3.89-3.89A3.89,3.89,0,0,0,160.46,189.59Z"/><path class="cls-13" d="M139.27,189.59a3.89,3.89,0,1,0,3.89-3.89A3.89,3.89,0,0,0,139.27,189.59Z"/><path class="cls-13" d="M118.08,189.59A3.89,3.89,0,1,0,122,185.7,3.89,3.89,0,0,0,118.08,189.59Z"/><path class="cls-6" d="M754.12,94.08c-3.09,2.79-3.16,5.37-3.16,10,0,1.15-.71,2.22-3,2.22-1.93,0-2.79-.79-2.79-3.3,0-7.16,1.94-10,3.87-11.75,2.79-2.58,7.66-5.44,7.66-11.32,0-4.58-3.15-7.23-8.23-7.23-6.81,0-6.52,4.44-9.25,4.44a2.94,2.94,0,0,1-2.93-2.94c0-3,4.65-7.31,12.39-7.31,9.1,0,14.33,5.38,14.33,12.33C763,87.2,756.48,91.64,754.12,94.08Zm-1.87,21.85a4.3,4.3,0,0,1-4.22,4.3,4.3,4.3,0,0,1,0-8.6A4.3,4.3,0,0,1,752.25,115.93Z"/><path class="cls-9" d="M654.89,553.29a4.38,4.38,0,0,1,6.19.29l4.48,4.94a4.47,4.47,0,0,1,1.14,3,4.42,4.42,0,0,1-1.45,3.22l-.54.5-.25.2L654.13,554a2.28,2.28,0,0,1,.22-.22Zm-21.91-23-.22.21,10.34,11.4a2.26,2.26,0,0,0,.26-.2l.53-.47a4.47,4.47,0,0,0,1.45-3.25,4.37,4.37,0,0,0-1.15-3L639.71,530a4.39,4.39,0,0,0-6.18-.31Zm29.08,35.48-8.55-9.44a6.06,6.06,0,0,0-1.08,1.92,23.75,23.75,0,0,1-8.4-5.81,26.75,26.75,0,0,1-5.24-9.32,5.86,5.86,0,0,0,2-.9l-8.55-9.43a6.1,6.1,0,0,0-1.36,3h0s0,0,0,.15v0c0,.27-.09.87-.12,1.75h0c0,3.77,1.12,11.35,8.7,19.74,9.94,11,18.58,9.59,19.6,9.37a6.1,6.1,0,0,0,3.07-1.07Zm.08,0"/></svg>